<?xml version="1.0" encoding="utf-8"?>
<!-- Generator: Adobe Illustrator 20.1.0, SVG Export Plug-In . SVG Version: 6.00 Build 0)  -->
<svg version="1.1" id="Layer_1" xmlns="http://www.w3.org/2000/svg" xmlns:xlink="http://www.w3.org/1999/xlink" x="0px" y="0px"
	 viewBox="0 0 192 255" style="enable-background:new 0 0 192 255;" xml:space="preserve">
<style type="text/css">
	.st0{fill:#FFFFFF;}
</style>
<path class="st0" d="M177.5,124.2c0-24.5-19-44.1-50.6-46.3V66.8c22-1.8,35.6-18.4,43.8-32.9c0,0-38.8,7.8-55.8-10.2
	c-6.1-6.5-10.6-14.4-26.6-10.9l-5.9,1l2.1,3c1.5,2.3,2.1,5.1,3.7,9.5c3.4,11.8,11.3,30.4,24.3,37.7v14.3
	c-38.6,3.7-62.3,32.3-62.3,62.3c0,17.6,8.4,30.4,8.4,30.4s1.7-52.9,43.3-67.2c4-1.5,8.4-2.5,13.2-3c0,0,0,0,0.1,0v0
	c1.7-0.2,3.4-0.2,5.1-0.2c21.2,0,31.3,11.3,31.3,24.1c0,18.3-20.1,26.9-35.3,21.9l2.2-5.5c6-14.1,17.5-24.1,17.5-24.1
	c-29.3-13-42.4,14.3-42.4,14.3l-1.6,3.6l-17.7,44.1c-1.3,3.1-3.3,8-6,13.4c-10.2-6.4-17.4-9-26.5-9c-23.6,0-32,16.5-32,28.7
	c0,13.2,10.1,28.5,32.4,28.5c15.2,0,26.7-7,35.5-16.3c15.7,11.9,29.8,19.8,45.9,19.8c29.4,0,43.3-25.6,43.3-47.5
	c0-24.3-17-36.2-17-36.2S177.5,153.8,177.5,124.2z M96.3,23.1c-1.8,0-3.3-1.5-3.3-3.4s1.5-3.3,3.3-3.3s3.4,1.5,3.4,3.3
	S98.2,23.1,96.3,23.1z M116.8,77.8V65.8c1.8,0.6,3.7,1,5.7,1.1v10.9c-0.5,0-1,0-1.6,0C119.6,77.8,118.2,77.8,116.8,77.8z M41,217.8
	c-4.8,0-9.7-2.4-9.7-7.5c0-4.4,3.8-8.2,10.6-8.2c5.1,0,9.9,2.4,15.5,6.4C52.7,214,47.3,217.8,41,217.8z M116.9,218.6
	c-9.9,0-18.7-4.9-27.1-11.2c3.7-6.6,6.8-13,9-18.3c3.7-8,7-16.5,10.1-24.1c28.5,6.2,30.5,24.9,30.5,30.4
	C139.4,206.1,132.5,218.6,116.9,218.6z"/>
</svg>
