<svg id="Layer_1" data-name="Layer 1" xmlns="http://www.w3.org/2000/svg" xmlns:xlink="http://www.w3.org/1999/xlink" viewBox="0 0 185.5 131.43"><defs><style>.cls-1{fill:none;}.cls-2{clip-path:url(#clip-path);}.cls-3{fill:#9fa1a4;}</style><clipPath id="clip-path"><rect class="cls-1" width="185.5" height="131.43"/></clipPath></defs><title>map</title><g class="cls-2"><path class="cls-3" d="M116.45,122.58v-3.23l1.5-4.68h-1.3l-.87,3.19-.87-3.19h-1.29l1.5,4.68v3.23Zm-5.08-6,.47,3.26h-1Zm-2.11,6h1.23l.22-1.64H112l.22,1.64h1.23l-1.35-7.91h-1.51Zm-4-7.91-.76,5.19-.67-5.19h-1.22l1.29,7.91H105l.81-5,.81,5h1.09l1.3-7.91h-1.22l-.67,5.19-.76-5.19Zm-3.63,7.91v-7.91h-1.27V118H99v-3.33H97.76v7.91H99v-3.42h1.36v3.42Zm-5.18-6.12a1.75,1.75,0,0,0-1.85-1.92,1.82,1.82,0,0,0-1.92,1.95v4.23c0,1.13.58,2,1.74,2a1.48,1.48,0,0,0,1.32-.69l.2.56h.58v-4h-2v1h.76v1.09c0,.53-.21.83-.69.83s-.65-.27-.65-.76v-4.32c0-.47.19-.76.64-.76s.61.28.61.72v1h1.24Zm-4.87-1.78H90.33v7.91H91.6Zm-2.5,7.91v-7.91H87.83V118H86.48v-3.33H85.2v7.91h1.27v-3.42h1.36v3.42Zm-7.35,0v-7.91H80.48V118H79.12v-3.33H77.85v7.91h1.27v-3.42h1.36v3.42Zm-7-6,.47,3.26h-1Zm-2.11,6h1.23l.22-1.64h1.3l.22,1.64h1.23l-1.35-7.91H74Zm-3.34-6.79h.51c.62,0,.78.31.78.93v3.81c0,.62-.16.93-.78.93h-.51Zm2.58,1c0-1.24-.51-2.14-2-2.14H68v7.91h1.83c1.51,0,2-.9,2-2.14Zm-5.07,5.77v-7.91H65.66v4.67L64,114.67H62.89v7.91H64v-4.86l1.72,4.86Zm-6.31-1.78c0,.42-.14.77-.65.77s-.65-.35-.65-.77v-4.34c0-.42.14-.77.65-.77s.65.35.65.77Zm1.28-4.31a1.94,1.94,0,1,0-3.87,0v4.27a1.94,1.94,0,1,0,3.87,0Zm-6.13,4.31c0,.42-.14.77-.65.77s-.65-.35-.65-.77v-4.34c0-.42.14-.77.65-.77s.65.35.65.77Zm1.28-4.31a1.94,1.94,0,1,0-3.87,0v4.27a1.94,1.94,0,1,0,3.87,0Zm-7.39,1.75v-2.47h.5c.58,0,.75.27.75,1.24s-.17,1.24-.75,1.24Zm2.59,4.34-1-3.47c.65-.32.93-.77.93-2.07s-.3-2.37-1.8-2.37h-2v7.91h1.28v-3.29H50l.88,3.29Zm-7-6,.47,3.26h-1Zm-2.11,6h1.23l.22-1.64h1.3l.22,1.64h1.23l-1.35-7.91H44.41Zm-1,0v-7.91H40.37l-.92,5-.91-5H36.83v7.91h1.12v-6l1.07,6h.78l1.1-6v6Z"/><path class="cls-3" d="M10.85,32.91H9.7V37h1.15V35.58h6.58v-1.3H10.85Zm0,7V37.86H9.7v3.38h7.72V37.78H16.28v2.17H14V38.41H12.89v1.53Zm0,4.56V42.42H9.7V45.8h7.72V42.33H16.28V44.5H14V43H12.89V44.5Zm2.36,5.06H10.77V49c0-.59.27-.77,1.21-.77s1.21.18,1.21.77Zm4.24-2.65-3.39,1c-.31-.67-.75-1-2-1s-2.31.31-2.31,1.84v2h7.72V49.56H14.22v-.47l3.21-.9Zm-6.58,5H9.7v4.06h1.15V54.54h6.58v-1.3H10.85Zm.55,7.41c-.4,0-.72-.2-.72-.64S11,58,11.73,58h.43V56.79h-.49c-1.44,0-2.1.7-2.1,1.85a1.75,1.75,0,0,0,1.87,1.9,3.35,3.35,0,0,0,2.43-1.37c.62-.67,1.1-1.22,1.82-1.22a.65.65,0,0,1,.74.7c0,.51-.34.72-.94.72h-.71v1.22h.8a2,2,0,1,0,0-3.9,3.45,3.45,0,0,0-2.5,1.44c-.66.69-1.1,1.15-1.7,1.15m-.6,7.09v-.53c0-.63.3-.8.91-.8h3.72c.61,0,.91.16.91.8v.53Zm1-2.64A1.84,1.84,0,0,0,9.7,65.79v1.87h7.72V65.79a1.84,1.84,0,0,0-2.09-2.07Zm3.89,6.38c.41,0,.75.14.75.67s-.34.67-.75.67H11.44c-.41,0-.75-.14-.75-.67s.34-.67.75-.67Zm-4.2-1.31a2,2,0,0,0,0,4h4.17a2,2,0,0,0,0-4Zm4.2,6.27c.41,0,.75.14.75.67s-.34.67-.75.67H11.44c-.41,0-.75-.14-.75-.67s.34-.67.75-.67Zm-4.2-1.31a2,2,0,0,0,0,4h4.17a2,2,0,0,0,0-4ZM9.7,82.33l5.07.78L9.7,83.8V85l7.72-1.32V82.6l-4.88-.83,4.88-.83V79.82L9.7,78.5v1.25l5.07.69-5.07.78ZM11.44,86a1.75,1.75,0,0,0-1.87,1.89,1.82,1.82,0,0,0,1.9,2h4.13a1.74,1.74,0,0,0,1.95-1.78,1.54,1.54,0,0,0-.67-1.35l.55-.21v-.59h-3.9v2h1v-.78h1.06c.51,0,.81.22.81.7s-.27.67-.74.67H11.44c-.46,0-.74-.2-.74-.66s.28-.62.71-.62h1V86Zm6,5H9.7v1.18h4.56L9.7,93.8V95h7.72V93.8H12.67L17.43,92ZM9.7,97.54h7.72v-1.3H9.7Zm3.49,3.75H10.77v-.51c0-.59.27-.77,1.21-.77s1.21.18,1.21.77Zm4.24-2.65-3.39,1c-.31-.67-.75-1-2-1S9.7,99,9.7,100.56v2h7.72v-1.32H14.22v-.47l3.21-.9Z"/></g><polygon class="cls-3" points="113.68 12.19 114.71 12.19 114.2 8.66 113.68 12.19"/><polygon class="cls-3" points="93.49 12.19 94.52 12.19 94.01 8.66 93.49 12.19"/><g class="cls-2"><path class="cls-3" d="M74.89,10.05H74v-3h.86c.9,0,1,.49,1,1.48s-.14,1.49-1,1.49M75,5.82H72.21V15H74v-3.7h1c2.16,0,2.67-1.14,2.67-2.75S77.2,5.82,75,5.82"/><path class="cls-3" d="M126,13V8.85c0-.68-.17-1-.85-1h-.56V14h.56c.67,0,.85-.33.85-1"/><path class="cls-3" d="M135.86,71.64c-.57,0-.72.39-.72.85v4.79c0,.46.16.85.72.85s.72-.39.72-.86V72.49c0-.46-.16-.85-.72-.85"/><path class="cls-3" d="M152.73,71.73h-.56v2.74h.56c.64,0,.83-.31.83-1.37s-.19-1.37-.83-1.37"/><path class="cls-3" d="M139.85,66.73c.57,0,.72-.39.72-.85V61.09c0-.46-.16-.85-.72-.85s-.72.39-.72.85v4.79c0,.46.16.85.72.85"/></g><polygon class="cls-3" points="146.62 76.19 147.67 76.19 147.15 72.59 146.62 76.19"/><path class="cls-3" d="M139.37,70.52h1.42v6.77c0,.46.15.85.72.85s.72-.39.72-.85V70.52h1.42v6.73a2.14,2.14,0,1,1-4.28,0Zm-1.66-4.67V61.13a2.14,2.14,0,1,1,4.28,0v4.72a2.14,2.14,0,1,1-4.28,0M130.4,78.13c.38,0,.76-.18.76-.83,0-.81-.59-1.36-1.31-2.06a3.83,3.83,0,0,1-1.48-2.75,1.93,1.93,0,0,1,2-2.12c1.24,0,2,.74,2,2.37v.56H131.1v-.48c0-.88-.24-1.2-.69-1.2s-.69.36-.69.81c0,.68.5,1.17,1.24,1.92a4,4,0,0,1,1.55,2.84,2.11,2.11,0,1,1-4.21,0v-.91h1.31v.8c0,.68.23,1.07.78,1.07m1.81-17.72v-1.3h4.39v1.3h-1.48v7.44h-1.41V60.41Zm5,19.55h.33v1.19h-.3a1.81,1.81,0,0,1-2.07-1.83,2,2,0,0,1-1.48-2.07V72.53a2.14,2.14,0,1,1,4.28,0v4.7a1.94,1.94,0,0,1-1.55,2.09c0,.46.33.63.78.63m12.24-.7h-1.36l-.25-1.82h-1.43l-.25,1.82h-1.36l1.49-8.74H148Zm-.83-11.4h-1.21l-.9-5.52-.9,5.52h-1.21L143,59.12h1.35l.74,5.74.84-5.74h1.21l.84,5.74.74-5.74h1.35Zm5.88,0-1.91-5.38v5.38h-1.28V59.12h1.28l1.79,5.16V59.12h1.27v8.74Zm.51,11.4h-1.38l-1-3.63h-.51v3.63h-1.42V70.52H153c1.65,0,2,1.13,2,2.61s-.31,1.94-1,2.29Zm4.43-5.13v1.22h-1.65V78h2.34v1.29H156.4V70.52h3.65v1.27h-2.25v2.34Zm12-4.66-6.25,4.77V64.7ZM111.21,37.63v54.9l-56,5.59-4-45H101V37.63H22.71v71.72H181.92V127.5H3.84V3.93H22.71V21.05H181.59V37.63ZM68.9,3.93H81v13H68.9Zm18.2,2.7h3.58V7.87h-2.2v2.29H90.1v1.2H88.48v2.56h2.29v1.27H87.1Zm6.09,0h1.63l1.46,8.56H94.95l-.24-1.78H93.3l-.24,1.78H91.73Zm4,5.63h1.29V13c0,.66.22,1,.76,1,.37,0,.74-.18.74-.82,0-.8-.58-1.33-1.29-2a3.75,3.75,0,0,1-1.45-2.69,1.89,1.89,0,0,1,2-2.07c1.22,0,2,.72,2,2.32v.54H99.91V8.88c0-.87-.23-1.17-.67-1.17s-.67.36-.67.79c0,.67.49,1.15,1.22,1.88a3.87,3.87,0,0,1,1.52,2.78,2.06,2.06,0,1,1-4.12,0Zm5-5.63h4.3V7.9H105v7.29h-1.38V7.9h-1.47Zm5.38,0h1.38v7.3H111v1.26h-3.47Zm5.86,0H115l1.46,8.56h-1.33l-.24-1.78h-1.4l-.24,1.78h-1.33Zm4.22,0h1.25l1.75,5.05V6.63h1.25v8.56h-1.13l-1.87-5.27v5.27H117.6Zm5.61,0h2c1.63,0,2.19,1,2.19,2.31v3.93c0,1.34-.56,2.31-2.19,2.31h-2ZM0,0V131.43H185.5V0"/><path class="cls-3" d="M90.77,73c0-3.37-2.62-6.06-7-6.36V65.14c3-.24,4.89-2.53,6-4.52,0,0-5.33,1.07-7.67-1.41-.84-.89-1.45-2-3.65-1.5l-.81.14.29.41a6.84,6.84,0,0,1,.51,1.3c.47,1.62,1.55,4.18,3.34,5.18v2c-5.3.51-8.56,4.44-8.56,8.57a8.29,8.29,0,0,0,1.16,4.17s.23-7.27,5.95-9.23a6.93,6.93,0,0,1,1.81-.41h0c.23,0,.46,0,.71,0,2.92,0,4.3,1.56,4.3,3.32,0,2.51-2.76,3.7-4.85,3l.3-.75A10.33,10.33,0,0,1,85.06,72a4.3,4.3,0,0,0-5.83,2l-.23.49-2.44,6.06c-.18.43-.45,1.11-.83,1.83a6.39,6.39,0,0,0-3.64-1.23c-3.24,0-4.4,2.26-4.4,3.95S69.08,89,72.15,89A6.54,6.54,0,0,0,77,86.79c2.16,1.63,4.1,2.71,6.31,2.71,4,0,6-3.52,6-6.54A6.25,6.25,0,0,0,87,78,5.07,5.07,0,0,0,90.77,73ZM79.62,59.15a.46.46,0,1,1,.46-.46A.46.46,0,0,1,79.62,59.15Zm2.81,7.52V65a3.11,3.11,0,0,0,.79.15v1.5h-.79ZM72,85.91c-.65,0-1.33-.33-1.33-1s.53-1.13,1.46-1.13a3.75,3.75,0,0,1,2.14.88A3.12,3.12,0,0,1,72,85.91Zm10.43.1a6.39,6.39,0,0,1-3.72-1.53A25.21,25.21,0,0,0,80,82c.5-1.11,1-2.26,1.38-3.32,3.92.85,4.2,3.42,4.2,4.17A3,3,0,0,1,82.45,86Z"/><path class="cls-3" d="M77.66,28.27v-1.2c0-.44-.18-.73-.63-.73s-.69.29-.69.76v4.36c0,.48.2.76.69.76s.63-.29.63-.73V30.2h1.28v1.25A1.78,1.78,0,0,1,77,33.38a1.87,1.87,0,0,1-2-2V27.13a1.87,1.87,0,0,1,2-2,1.78,1.78,0,0,1,1.92,1.93v1.17Z"/><path class="cls-3" d="M81.23,33.25H79.93V25.31h1.31Z"/><path class="cls-3" d="M84.2,30.87l.88-5.57H86.4l-1.54,7.94H83.54L82,25.31h1.32Z"/><path class="cls-3" d="M88.5,33.25H87.2V25.31H88.5Z"/><path class="cls-3" d="M92.16,28.27v-1.2c0-.44-.18-.73-.63-.73s-.69.29-.69.76v4.36c0,.48.2.76.69.76s.63-.29.63-.73V30.2h1.28v1.25a1.78,1.78,0,0,1-1.91,1.93,1.87,1.87,0,0,1-2-2V27.13a1.87,1.87,0,0,1,2-2,1.78,1.78,0,0,1,1.91,1.93v1.17Z"/><path class="cls-3" d="M98.8,30.06h-.74v3.19H96.74V25.31H98.8c1.57,0,1.95,1,1.95,2.38S100.37,30.06,98.8,30.06Zm-.11-3.66h-.63V29h.63c.66,0,.76-.42.76-1.29S99.35,26.4,98.69,26.4Z"/><path class="cls-3" d="M103,32.08h2v1.17h-3.3V25.31H103Z"/><path class="cls-3" d="M107,25.31h1.55l1.39,7.94h-1.27l-.23-1.65h-1.33l-.23,1.65h-1.27Zm.29,5.16h1l-.48-3.28Z"/><path class="cls-3" d="M113.2,28.27v-1.2c0-.44-.18-.73-.63-.73s-.69.29-.69.76v4.36c0,.48.2.76.69.76s.63-.29.63-.73V30.2h1.28v1.25a1.78,1.78,0,0,1-1.92,1.93,1.87,1.87,0,0,1-2-2V27.13a1.87,1.87,0,0,1,2-2,1.78,1.78,0,0,1,1.92,1.93v1.17Z"/><path class="cls-3" d="M116.77,28.59h1.54V29.7h-1.54v2.38H119v1.18h-3.49V25.31h3.4v1.16h-2.09Z"/></svg>