<svg id="Layer_1" data-name="Layer 1" xmlns="http://www.w3.org/2000/svg" viewBox="0 0 1423.14 614.4"><title>The_Backyard_Sessions_logotype</title><path d="M222.2,396.4c0-8.57-3.14-37.71-47.72-47.43-4.86,12-10,25.15-15.72,37.72a286.67,286.67,0,0,1-14,28.57c13.14,9.72,26.86,17.43,42.29,17.43,24.29,0,35.15-19.43,35.15-36.29M53.33,419.84c0,8,7.72,11.71,15.14,11.71,9.72,0,18.29-6,25.72-14.57-8.86-6.28-16.29-10-24.29-10-10.57,0-16.57,6-16.57,12.86m-34,2.57c0-19.15,13.15-44.86,50-44.86,14.29,0,25.43,4,41.44,14,4.29-8.28,7.43-16,9.43-20.86l27.71-68.86c8-19.72,27.71-41.44,56.29-41.44L212.48,285s-13.72,4.57-23.15,26.58l-3.43,8.57c23.72,7.72,55.15-5.71,55.15-34.29,0-20-15.72-37.71-48.86-37.71-46.86,0-72.58,35.72-72.58,61.44,0,13.14,6.57,26,6.57,26L95.9,358.12a94.26,94.26,0,0,1-13.15-47.44c0-50.29,42.58-98,110.59-98,54.86,0,88.29,32,88.29,72.58,0,46.29-43.43,56.29-43.43,56.29s26.58,18.57,26.58,56.57c0,34.29-21.72,74.29-67.72,74.29-25.14,0-47.14-12.28-71.72-30.86C111.61,456.13,93.62,467,69.89,467,35,467,19.32,443,19.32,422.41" transform="translate(-19.32 -19.28)" style="fill:#231f20"/><path d="M356.77,403.26l18.57-45.72s-.29-16-12.86-16c-22.58,0-43.72,53.43-43.72,71.72,0,7.43,3.43,10.57,9.15,10.57,15.71,0,28.86-20.57,28.86-20.57M469.92,388.4c-22.29,38.86-50,71.72-84.86,71.72-29.72,0-33.43-23.72-33.43-23.72s-19.72,23.72-44.87,23.72c-21.43,0-32.29-16.86-32.29-37.43,0-30.57,24.29-118.3,78.87-118.3,27.71,0,34,23.14,34,23.14l8-19.43h45.43l-35.43,87.43c-12.86,32.29-8,36.58-2.86,36.58,11.43,0,30.86-20,51.43-55.15,6,.58,13.72,6,16,11.43" transform="translate(-19.32 -19.28)" style="fill:#231f20"/><path d="M616.21,388.4c-19.43,34.29-54.29,71.72-109.15,71.72-39.72,0-58.86-19.43-58.86-50.58,0-38.29,29.15-105.15,89.44-105.15,40.58,0,59.44,28.57,35.15,76.86H527.34c16.29-33.43,17.43-40.86,8.29-40.86-24.57,0-44.58,51.15-44.58,70.3,0,18.57,18.86,21.43,29.15,21.43,28.86,0,59.72-19.15,80-55.15,6,.58,13.72,6,16,11.43" transform="translate(-19.32 -19.28)" style="fill:#231f20"/><path d="M775.93,388.4c-17.15,29.72-54,71.72-90.29,71.72-26.58,0-46.29-22.57-43.72-54.58,1.15-14.29,5.43-17.43,12-17.43,8.28,0,23.72-.28,33.43-25.71,1.15-3.15,3.43-9.43,3.43-14.29S688.5,341,683.92,341c-7.72,0-19.44,6.28-32.29,20.29l-38.58,95.15H567.62l82.87-204.88h45.43l-28.87,71.72s21.72-18.85,46.58-18.85c18.28,0,27.71,10.29,27.71,24,0,14.86-11.14,37.72-12.86,41.15-10,19.72-26.57,32.86-44.29,34.29-.57,11.71,0,29.43,14.86,28.29,16-.86,41.72-21.72,60.86-55.15,6,.58,13.72,6,16,11.43" transform="translate(-19.32 -19.28)" style="fill:#231f20"/><path d="M768.21,519c6.28,0,16-7.15,25.43-32.58-8.57,4-14.57,6.29-22.29,10.86-6.57,4-10.86,9.14-10.86,14a7.34,7.34,0,0,0,7.72,7.72M937.36,388.4c-29.43,51.44-60,69.43-93.44,85.15,0,0-4.28,10.58-6.57,16.29-11.71,28.29-28.86,56.86-63.15,56.86-24.28,0-35.43-15.14-35.14-31.43.28-20.29,17.71-33.71,32.29-40.29,10.57-5.14,26.58-11.71,32.86-15.14l7.15-17.43s-13.15,17.71-34.58,17.71c-22.86,0-42.86-19.72-21.71-72.29l32.29-79.73h45.44l-35.15,87.43c-11.71,28.58-7.72,32.58-2,32.58,11.14,0,22.29-15.42,39.43-44.86l30.57-75.15h45.44l-56,137.44c26.86-13.72,46-33.15,66.29-68.58,6,.58,13.72,6,16,11.43" transform="translate(-19.32 -19.28)" style="fill:#231f20"/><path d="M994.22,403.26l18.57-45.72s-.29-16-12.86-16c-22.58,0-43.72,53.43-43.72,71.72,0,7.43,3.43,10.57,9.14,10.57,15.72,0,28.87-20.57,28.87-20.57m113.15-14.85c-22.29,38.86-50,71.72-84.86,71.72-29.72,0-33.43-23.72-33.43-23.72s-19.72,23.72-44.87,23.72c-21.43,0-32.29-16.86-32.29-37.43,0-30.57,24.29-118.3,78.86-118.3,27.72,0,34,23.14,34,23.14l8-19.43h45.43l-35.43,87.43c-12.86,32.29-8,36.58-2.86,36.58,11.43,0,30.86-20,51.43-55.15,6,.58,13.72,6,16,11.43" transform="translate(-19.32 -19.28)" style="fill:#231f20"/><path d="M1091.36,377c6.29-11.14,14.29-27.43,22.57-45.72-5.14-5.43-8.85-10.29-8.85-17.43,0-14.57,15.14-30,26.86-33.71l18.57,10.29-9.14,22.86c11.71,10.29,46.86,26.29,46.86,47.72,0,3.43-.85,7.72-3.42,14.29l-8,20.29c-13.15,32-6.29,36.57-2.28,36.57,8,0,21.71-17.71,43.71-55.15,6,.58,13.72,6,16,11.43-22,38-44.87,71.72-76.3,71.72-22.29,0-46-16.58-25.43-67.15l9.14-23.14c2.28-5.72,2.57-8.58,2.57-10,0-5.71-6.29-10.86-14-17.43a431.69,431.69,0,0,1-22.86,46c-6-.57-13.72-6-16-11.43" transform="translate(-19.32 -19.28)" style="fill:#231f20"/><path d="M1290.79,403.26l18.57-45.72s-.28-16-12.86-16c-22.57,0-43.71,53.43-43.71,71.72,0,7.43,3.42,10.57,9.14,10.57,16,0,28.86-20.57,28.86-20.57m113.15-14.85c-22.29,38.86-50,71.72-84.57,71.72-30,0-33.72-23.72-33.72-23.72s-19.72,23.72-45.15,23.72c-21.43,0-32.29-17.43-32.29-37.15,0-31.71,27.14-118.58,79.43-118.58,27.15,0,33.72,23.14,33.72,23.14l30.86-76h45.43l-58.29,144c-13.15,32.58-7.72,36.58-2.86,36.58,11.43,0,30.86-20,51.44-55.15,6,.58,13.72,6,16,11.43" transform="translate(-19.32 -19.28)" style="fill:#231f20"/><path d="M438.76,189.19a157.33,157.33,0,0,1-20.16-1.51l-22.08,54.45c-13,32.92-32.37,37.72-44.85,37.72-22.63,0-33.47-15.36-33.47-30.86,0-16.6,12.62-31.55,34-29.9v18.1c-12.89-1-15.36,7-15.36,11.94,0,7.81,6.45,12.62,13.44,12.62,12.89,0,20.85-11.52,28.8-30.73l19.06-47.18c-16-3.57-31.81-7.27-41.28-7.27s-13.71,4-13.71,9.05c0,5.35,4.66,8,8.91,8,5.35,0,9.46-4.11,9.46-4.11l8.78,13.3a29.17,29.17,0,0,1-19.61,7.55c-12.89,0-25.23-8.51-25.23-24.69,0-13.72,9.05-27.43,32.64-27.43,22.36,0,56.92,12.62,80,12.62,12.62,0,16.6-4,16.6-4l11.39,6.3s-2.34,16.05-27.3,16.05" transform="translate(-19.32 -19.28)" style="fill:#231f20"/><path d="M506.79,240.9c-11.11,19.34-24.14,34.42-40.73,34.42-14.27,0-19.76-11.25-10.15-35.25L458,235c2.6-6.86,4.8-11.79,4.8-13.85s-1.64-3-3.84-3c-3.29,0-9.6,3.15-15.36,9.74L425,273.54H403.24L443,175.2h21.81L451,209.63s10.29-9.05,22.49-9.05c8.64,0,13.17,4.66,13.17,11.93,0,3.7-1.23,8.37-4.11,15.5l-6.72,16.32c-6.31,15.77-3.7,17.55-1.37,17.55,5.48,0,14.94-9.6,24.69-26.47,2.88.28,6.58,2.89,7.68,5.49" transform="translate(-19.32 -19.28)" style="fill:#231f20"/><path d="M520.91,235.83c12.62,2.19,16.74-3.56,19.48-10,1.78-4.11,2.6-7.82-2.06-7.82-10.15,0-17.42,17.83-17.42,17.83m56,5.07c-9.33,16.46-26.06,34.42-52.39,34.42-19.06,0-28.26-9.33-28.26-24.27,0-18.25,13.86-50.48,43.21-50.48,15.49,0,28.66,10.15,19.88,29.9-5.76,12.48-16.74,20.43-42.11,17.15,0,0-4,14.26,13.45,14.26,14,0,28.8-9.19,38.54-26.47,2.88.28,6.58,2.89,7.68,5.49" transform="translate(-19.32 -19.28)" style="fill:#231f20"/><path d="M924.55,526c7.27-7.54,10.42-12.89,10.42-17.7,0-2.33-.83-5.07-4.39-5.07-6.72,0-7.13,9.19-7.13,12.34a60.84,60.84,0,0,0,1.1,10.43m-14.4,34.56C897.94,572,885,583.35,875,592.4a23.06,23.06,0,0,0,10.29,2.19c15.09,0,25.37-11.93,25.37-27.16,0-2.05-.41-4.39-.54-6.86m-46.36,21.67c11.25-10.56,28.94-26.33,43.07-39.09-1.92-8.64-3.57-17.7-3.57-25.65,0-20.16,11.11-32.64,27.43-32.64,15.23,0,21.4,11.25,21.4,20.84,0,13.31-11.39,25.78-24,38.13,1.64,8.5,3,17.15,3,24.69,0,27.57-19.47,45-45.53,45a49.14,49.14,0,0,1-25.1-6.58c-6.86,8.09-9.88,16-8,26.74H838.28c-2.06-11.79,2.19-24.68,11.25-36.62a41.71,41.71,0,0,1-7.82-25.1c0-31.55,29.49-47.73,53.49-35.38l-6.58,16.6c-14.13-7.13-27.43,2.6-27.43,18a22.91,22.91,0,0,0,2.6,11.11" transform="translate(-19.32 -19.28)" style="fill:#231f20"/><path d="M962.26,563.46c12.62,2.19,16.74-3.56,19.48-10,1.78-4.11,2.6-7.82-2.06-7.82-10.15,0-17.42,17.83-17.42,17.83m56,5.07C1008.89,585,992.16,603,965.83,603c-19.06,0-28.26-9.33-28.26-24.27,0-18.25,13.86-50.48,43.21-50.48,15.49,0,28.66,10.15,19.88,29.9-5.76,12.48-16.73,20.43-42.11,17.15,0,0-4,14.26,13.45,14.26,14,0,28.8-9.19,38.54-26.47,2.88.28,6.58,2.89,7.68,5.49" transform="translate(-19.32 -19.28)" style="fill:#231f20"/><path d="M1010.54,563c5.48-9.33,14.4-26.33,19.61-37.85l18.92,4.8c-3.56,19.33-.68,40.87-.55,49.51a28.92,28.92,0,0,1-.68,7.4c7.27-5.76,12.89-13.17,19.06-23.86,2.88.28,6.58,2.89,7.68,5.49-10,18-23.45,34.42-46.5,34.42-17,0-23-9.19-23.18-9.33l12.07-7.54a5,5,0,0,0,4.25,1.92c4.39,0,7.13-3.7,7.13-17,0-6-.55-14.54-.28-21.39-3.56,7-7.13,14.13-9.88,18.93-2.88-.28-6.58-2.89-7.68-5.49" transform="translate(-19.32 -19.28)" style="fill:#231f20"/><path d="M1066.91,563c5.48-9.33,14.4-26.33,19.61-37.85l18.92,4.8c-3.56,19.33-.68,40.87-.55,49.51a28.92,28.92,0,0,1-.68,7.4c7.27-5.76,12.89-13.17,19.06-23.86,2.88.28,6.58,2.89,7.68,5.49-10,18-23.45,34.42-46.5,34.42-17,0-23-9.19-23.18-9.33l12.07-7.54a5,5,0,0,0,4.25,1.92c4.39,0,7.13-3.7,7.13-17,0-6-.55-14.54-.28-21.39-3.56,7-7.13,14.13-9.88,18.93-2.88-.28-6.58-2.89-7.68-5.49" transform="translate(-19.32 -19.28)" style="fill:#231f20"/><path d="M1142.34,512.17a11.89,11.89,0,0,1,12.07-11.93,12.06,12.06,0,0,1,12.07,11.93,12.36,12.36,0,0,1-12.07,12.07,12.18,12.18,0,0,1-12.07-12.07m29.9,56.37C1161.68,587,1148,603,1132.19,603c-12.48,0-21.26-9.87-11.25-34.7l15.5-38.26h21.8l-16.87,42c-6.31,15.64-3.84,17.55-1.5,17.55,5.48,0,15-9.6,24.69-26.47,2.88.28,6.58,2.89,7.68,5.49" transform="translate(-19.32 -19.28)" style="fill:#231f20"/><path d="M1198.16,582a11.07,11.07,0,0,1,8.64-18.66c1.93-5.35,3-10.29,3-13.71,0-5.08-2.47-7.13-5.35-7.13-10.84,0-21.39,28.8-21.39,38.95,0,4.39,2.05,7.27,5.35,7.27s6.72-2.74,9.74-6.72m52.94-13.44c-7.4,12.76-19.88,21.94-33.87,20.85-6.86,8-16.46,13.58-28.67,13.58-17,0-26.33-10.42-26.33-26.06,0-18.38,13.44-48.69,42.52-48.69,16.6,0,25.78,9.6,25.78,25.51a59.1,59.1,0,0,1-6.17,25.1c6.72-1.1,13.45-6.17,19.07-15.78,2.88.28,6.58,2.89,7.68,5.49" transform="translate(-19.32 -19.28)" style="fill:#231f20"/><path d="M1331.33,568.54c-11,19.06-24.14,34.42-40.6,34.42-14.27,0-20.16-11-10.42-35.25l2.05-5.07c2.61-6.58,4.8-11.79,4.8-13.85s-1.65-3-3.7-3c-3.29,0-9.6,3.15-15.36,9.74l-18.51,45.67h-21.81l28.8-71.18h21.81l-2.88,7.27c.68-.68,10.83-9.05,22.49-9.05,8.64,0,13.17,4.66,13.17,11.93,0,3.7-1.23,8.37-4.11,15.5L1300.34,572c-6.31,15.77-3.7,17.55-1.37,17.55,5.48,0,14.94-9.6,24.69-26.47,2.88.28,6.58,2.89,7.68,5.49" transform="translate(-19.32 -19.28)" style="fill:#231f20"/><path d="M1323.65,563c5.48-9.33,14.4-26.33,19.61-37.85l18.92,4.8c-3.56,19.33-.68,40.87-.55,49.51a28.92,28.92,0,0,1-.68,7.4c7.27-5.76,12.89-13.17,19.06-23.86,2.88.28,6.58,2.89,7.68,5.49-10,18-23.45,34.42-46.5,34.42-17,0-23-9.19-23.18-9.33l12.07-7.54a5,5,0,0,0,4.25,1.92c4.39,0,7.13-3.7,7.13-17,0-6-.55-14.54-.28-21.39-3.56,7-7.13,14.13-9.88,18.93-2.88-.28-6.58-2.89-7.68-5.49" transform="translate(-19.32 -19.28)" style="fill:#231f20"/><path d="M1342.55,174.25a4.51,4.51,0,1,1,4.51-4.51,4.51,4.51,0,0,1-4.51,4.51m24.85.71c-8.21-8.69-14.24-19.31-35.72-14.72l-7.9,1.32,2.8,4c2,3.11,2.89,6.85,5,12.74,5.89,20.38,21.66,55.88,49.38,54.8,31.14-1.21,50.2-24.37,61.54-44.4,0,0-52.2,10.45-75.06-13.75" transform="translate(-19.32 -19.28)" style="fill:#231f20"/><rect x="1344.94" y="203.39" width="5.79" height="31.37" style="fill:#231f20"/><rect x="1358.46" y="203.39" width="5.79" height="31.37" style="fill:#231f20"/><path d="M112,82.8C112,91.45,106.42,97,97.59,97S83.18,91.45,83.18,82.8V38.32h9.55V83c0,3,1,5.6,4.86,5.6s4.86-2.56,4.86-5.6V38.32H112Z" transform="translate(-19.32 -19.28)" style="fill:#231f20"/><path d="M133.17,64.4c4.3,0,5.57-2,5.57-9s-1.27-9-5.57-9h-3.74V64.4Zm6.21,31.68-6.53-24h-3.42v24h-9.55V38.32h14.88c11.14,0,13.38,7.44,13.38,17.28,0,9.52-2.07,12.8-6.93,15.12l7.49,25.36Z" transform="translate(-19.32 -19.28)" style="fill:#231f20"/><path d="M167.8,70.24h-3.35V88.09h3.35c5.25,0,6.29-2.32,6.29-8.72,0-5.84-.88-9.12-6.29-9.12m-3.35-7.52h3.74c4.14,0,5.25-2.56,5.25-8.32s-1.11-8.08-5.25-8.08h-3.74Zm12.18,3.36v.16c5.57,2.16,6.77,6.24,6.77,13.28,0,11-2.95,16.56-14.33,16.56H154.9V38.33h14.81c9.79,0,13.05,5.35,13.05,15.84,0,6.16-1.11,9.84-6.13,11.92" transform="translate(-19.32 -19.28)" style="fill:#231f20"/><path d="M198.28,75.84h7.09L201.86,52Zm-2.07-37.52h11.22l10,57.76h-9.15l-1.67-12H197l-1.67,12h-9.15Z" transform="translate(-19.32 -19.28)" style="fill:#231f20"/><polygon points="224.81 76.81 212 41.29 212 76.81 203.4 76.81 203.4 19.04 212 19.04 224.02 53.12 224.02 19.04 232.61 19.04 232.61 76.81 224.81 76.81" style="fill:#231f20"/><polygon points="265.89 68.33 280.3 68.33 280.3 76.81 256.42 76.81 256.42 19.05 265.89 19.05 265.89 68.33" style="fill:#231f20"/><rect x="285.87" y="19.04" width="9.47" height="57.76" style="fill:#231f20"/><rect x="63.94" width="28.74" height="9.53" style="fill:#231f20"/><polygon points="312.94 43.12 324.48 43.12 324.48 51.36 312.94 51.36 312.94 76.81 303.38 76.81 303.38 19.04 328.38 19.04 328.38 27.36 312.94 27.36 312.94 43.12" style="fill:#231f20"/><polygon points="343.09 42.88 354.24 42.88 354.24 50.96 343.09 50.96 343.09 68.24 358.86 68.24 358.86 76.8 333.62 76.8 333.62 19.04 358.22 19.04 358.22 27.44 343.09 27.44 343.09 42.88" style="fill:#231f20"/><path d="M410.3,67h-2.68V78h2.68c2.81,0,3.24-1.8,3.24-5.53S413.12,67,410.3,67m.47,15.73h-3.15v13.7H402V62.33h8.79c6.72,0,8.32,4.25,8.32,10.2s-1.59,10.2-8.32,10.2" transform="translate(-19.32 -19.28)" style="fill:#231f20"/><path d="M430.47,77.73c2.54,0,3.29-1.18,3.29-5.34s-.75-5.34-3.29-5.34h-2.21V77.73Zm3.67,18.71-3.86-14.17h-2V96.44h-5.64V62.33h8.79c6.58,0,7.89,4.39,7.89,10.2,0,5.62-1.22,7.56-4.09,8.92l4.42,15Z" transform="translate(-19.32 -19.28)" style="fill:#231f20"/><polygon points="429.57 57.13 436.15 57.13 436.15 61.9 429.57 61.9 429.57 72.1 438.87 72.1 438.87 77.16 423.98 77.16 423.98 43.05 438.5 43.05 438.5 48.01 429.57 48.01 429.57 57.13" style="fill:#231f20"/><path d="M471.07,77.3c3.48,3.45,6.15,6.38,6.15,11.05,0,5.29-3.43,8.64-8.36,8.64-5.18,0-8.37-3.63-8.37-8.69V84.77h5.21v3.12c0,2.65.9,4.16,3.1,4.16,1.5,0,3-.71,3-3.26,0-3.16-2.35-5.29-5.22-8s-5.87-5.86-5.87-10.72c0-4.34,2.39-8.27,8.13-8.27,4.93,0,7.94,2.88,7.94,9.26V73.2h-5.21V71.3c0-3.45-.94-4.68-2.73-4.68s-2.73,1.42-2.73,3.17c0,2.64,2,4.58,4.93,7.51" transform="translate(-19.32 -19.28)" style="fill:#231f20"/><polygon points="466.88 57.13 473.47 57.13 473.47 61.9 466.88 61.9 466.88 72.1 476.19 72.1 476.19 77.16 461.29 77.16 461.29 43.05 475.82 43.05 475.82 48.01 466.88 48.01 466.88 57.13" style="fill:#231f20"/><polygon points="492.41 77.16 484.84 56.18 484.84 77.16 479.77 77.16 479.77 43.05 484.84 43.05 491.93 63.17 491.93 43.05 497.01 43.05 497.01 77.16 492.41 77.16" style="fill:#231f20"/><polygon points="511.35 48.1 511.35 77.16 505.76 77.16 505.76 48.1 499.79 48.1 499.79 43.05 517.22 43.05 517.22 48.1 511.35 48.1" style="fill:#231f20"/></svg>